<svg width="1558" height="1752" viewBox="0 0 1558 1752" fill="none" xmlns="http://www.w3.org/2000/svg">
<path d="M146.75 1580.83L779.009 1751.07L1411.28 1580.83L1557.18 0.181641H0.829834L146.75 1580.83Z" fill="#2062AF"/>
<path d="M779.014 128.212V1615.29L777.584 1615.68L265.923 1477.9L147.822 128.212H779.014V128.212Z" fill="#3C9CD7"/>
<path d="M779.576 523.438L1232.1 711.904L1217.1 898.5L779.576 711.431L314.165 512.446L294.869 321.566L779.576 523.438Z" fill="white"/>
<path d="M1232.11 711.904L1217.1 898.5L779.58 711.431V523.438L1232.11 711.904V711.904Z" fill="url(#paint0_linear)"/>
<path d="M294.869 321.571L779.576 523.438V711.431L314.165 512.446L294.869 321.571Z" fill="url(#paint1_linear)"/>
<path d="M1231.41 711.904L1216.4 898.5L545.081 900.64L560.097 1149.43L781.001 1211.62L993.354 1158L1006.22 1003.58H1203.53L1177.8 1301.7L778.856 1419.66L382.08 1303.84L330.602 711.904H1231.41V711.904Z" fill="url(#paint2_linear)"/>
<path opacity="0.05" d="M779.576 711.904H1232.1L1217.1 898.5L779.576 899.897V711.904ZM779.576 1211.03L781.72 1211.63L994.045 1158.01L1006.91 1003.59H1204.22L1178.49 1301.71L779.576 1419.66V1211.03Z" fill="black"/>
<path d="M1272.86 321.571H294.869L314.165 512.451H1249.27L1272.86 321.571V321.571Z" fill="url(#paint3_linear)"/>
<path opacity="0.05" d="M779.576 321.571H1272.86L1249.27 512.451H779.576V321.571V321.571Z" fill="black"/>
<defs>
<linearGradient id="paint0_linear" x1="1005.84" y1="898.505" x2="1005.84" y2="523.443" gradientUnits="userSpaceOnUse">
<stop offset="0.387" stop-color="#D1D3D4" stop-opacity="0"/>
<stop offset="1" stop-color="#D1D3D4"/>
</linearGradient>
<linearGradient id="paint1_linear" x1="537.227" y1="711.435" x2="537.227" y2="321.575" gradientUnits="userSpaceOnUse">
<stop offset="0.387" stop-color="#D1D3D4" stop-opacity="0"/>
<stop offset="1" stop-color="#D1D3D4"/>
</linearGradient>
<linearGradient id="paint2_linear" x1="1231.41" y1="1065.79" x2="330.607" y2="1065.79" gradientUnits="userSpaceOnUse">
<stop stop-color="#E8E7E5"/>
<stop offset="1" stop-color="white"/>
</linearGradient>
<linearGradient id="paint3_linear" x1="1272.86" y1="417.011" x2="294.874" y2="417.011" gradientUnits="userSpaceOnUse">
<stop stop-color="#E8E7E5"/>
<stop offset="1" stop-color="white"/>
</linearGradient>
</defs>
</svg>
