<svg width="58" height="64" viewBox="0 0 58 64" fill="none" xmlns="http://www.w3.org/2000/svg">
<path d="M5.92 57.604L0.783997 0.00201416H57.216L52.076 57.596L28.964 64L5.92 57.604Z" fill="#E44D26"/>
<path d="M47.674 53.928L52.068 4.71201H29V59.106L47.674 53.928Z" fill="#F16529"/>
<path d="M28.976 11.776H11.284L13.19 33.14H29V26.076H19.652L19.006 18.842H29V11.776H28.976ZM29 44.4L28.97 44.408L21.102 42.284L20.602 36.65H13.506L14.496 47.742L28.968 51.742L29 51.732V44.4Z" fill="#EBEBEB"/>
<path d="M28.976 33.14H37.676L36.876 42.3L28.996 44.426V51.776L43.48 47.762L45.42 26.072H29L28.976 33.14ZM46.504 13.672L46.672 11.776H28.972V18.84H46.036L46.176 17.252L46.504 13.672Z" fill="white"/>
</svg>
